<svg xmlns="http://www.w3.org/2000/svg" xmlns:xlink="http://www.w3.org/1999/xlink" viewBox="0 0 370.9 307.08"><defs><style>.cls-1{fill:none;}.cls-2{clip-path:url(#clip-path);}.cls-3{clip-path:url(#clip-path-2);}.cls-4{clip-path:url(#clip-path-3);}.cls-5{clip-path:url(#clip-path-4);}</style><clipPath id="clip-path" transform="translate(0 -0.01)"><rect class="cls-1" x="195.59" y="51.4" width="172.5" height="211.79"/></clipPath><clipPath id="clip-path-2" transform="translate(0 -0.01)"><rect class="cls-1" x="262.08" width="108.82" height="104.2"/></clipPath><clipPath id="clip-path-3" transform="translate(0 -0.01)"><rect class="cls-1" x="261.83" y="0.36" width="98.22" height="109.35" transform="translate(220.57 357.6) rotate(-83.41)"/></clipPath><clipPath id="clip-path-4" transform="translate(0 -0.01)"><polygon class="cls-1" points="305.4 103.83 262.46 -0.01 370.9 12.52 305.4 103.83"/></clipPath></defs><g id="Layer_2" data-name="Layer 2"><g id="Layer_1-2" data-name="Layer 1"><g class="cls-2"><path d="M277,208.77l90.92-85.16v-72l-172,161.57V263H368.11V208.77ZM261.61,51.56h-66v54.26H298.25Z" transform="translate(0 -0.01)"/></g><g class="cls-3"><g class="cls-4"><g class="cls-5"><path d="M359.62,110.1,251.37,97.59,262.65,0,370.9,12.52Z" transform="translate(0 -0.01)"/></g></g></g><path d="M44.46,126.36a25.37,25.37,0,0,0,7.79-1.22,26,26,0,0,0,5.55-2.33l1.77-1.21,7.48,14.93-1,.75c-.44.31-1.45.89-3,1.73a35.58,35.58,0,0,1-5.1,2.19,46.7,46.7,0,0,1-7.09,1.68,54.84,54.84,0,0,1-9.06.75A42.82,42.82,0,0,1,5.89,123.84,36.93,36.93,0,0,1,3.46,88.26a40.22,40.22,0,0,1,9.2-12.79A44.63,44.63,0,0,1,26.05,67,40.76,40.76,0,0,1,41.74,63.8a50.73,50.73,0,0,1,13.77,1.77q6.32,1.79,8.92,3.55l2.62,1.78L59.57,85.83a15,15,0,0,0-2-1.35,29.82,29.82,0,0,0-5.23-2.1,24.91,24.91,0,0,0-7.92-1.31,30,30,0,0,0-11.4,2.05,20.93,20.93,0,0,0-8,5.42,25,25,0,0,0-4.49,7.24,21.29,21.29,0,0,0-1.53,7.89,22.32,22.32,0,0,0,6.57,15.73Q32.22,126.36,44.46,126.36Z" transform="translate(0 -0.01)"/><path d="M97.69,80.09V64.2h54.15V80.09h-18.3v63.54H116V80.09Z" transform="translate(0 -0.01)"/><path d="M.65,162.2H28.2q11.1,0,18.1,5.93t7,16.94q0,8.51-4.25,14.24a22.34,22.34,0,0,1-11.53,8.07l26.52,31.84H41.73L18.21,208.79v30.43H.65Zm17.56,34.17h2.05c1.62,0,3,0,4.11-.1a19,19,0,0,0,3.82-.65A9.36,9.36,0,0,0,31.64,194a8.2,8.2,0,0,0,2.25-3,12.55,12.55,0,0,0,0-9.53,8.11,8.11,0,0,0-2.25-3A9.36,9.36,0,0,0,28.19,177a19,19,0,0,0-3.82-.66c-1.13-.06-2.49-.09-4.11-.09H18.21Z" transform="translate(0 -0.01)"/><path d="M120.81,162.2v61.61h26.52v15.41H103.26v-77Z" transform="translate(0 -0.01)"/><path d="M9.08,306.39a4.94,4.94,0,0,0,2.93-.9,3.06,3.06,0,0,0,1.28-2.69A3.16,3.16,0,0,0,11.91,300,12.94,12.94,0,0,0,8,298.36a28.59,28.59,0,0,1-3.68-1.24,9.72,9.72,0,0,1-2.16-1.4Q.1,294,.1,290.39a6.91,6.91,0,0,1,2.11-5.07A7.71,7.71,0,0,1,8,283.2a14.07,14.07,0,0,1,3.65.51,13.8,13.8,0,0,0,2.38.51c.3,0,.58-.22.83-.66h.36l.24,6.69h-.54a20.56,20.56,0,0,0-3.33-4.62,5.27,5.27,0,0,0-3.78-1.74,4.77,4.77,0,0,0-3.16.94,3.13,3.13,0,0,0-1.13,2.52,2.72,2.72,0,0,0,1.35,2.43,12.06,12.06,0,0,0,3.29,1.37c1.3.35,2.16.6,2.57.73s.92.31,1.52.54a8.08,8.08,0,0,1,1.5.73,10.47,10.47,0,0,1,1.21,1,4.33,4.33,0,0,1,1,1.27,7.55,7.55,0,0,1,.9,3.78,7.67,7.67,0,0,1-2.24,5.75,8.11,8.11,0,0,1-5.88,2.17,22.14,22.14,0,0,1-4.33-.5c-1.62-.33-2.52-.5-2.69-.5s-.62.33-.9,1H.33L0,299.2H.56a18.55,18.55,0,0,0,3.73,5A6.94,6.94,0,0,0,9.08,306.39Z" transform="translate(0 -0.01)"/><path d="M76.74,283.56l.33,8.31h-.63a25.81,25.81,0,0,0-2.59-6,3.7,3.7,0,0,0-3.24-1.61h-.4v21.8H73v.7H60.93v-.7h2.82v-21.8h-.44A3.78,3.78,0,0,0,60,285.93a25.36,25.36,0,0,0-2.55,5.94h-.63l.33-8.31Z" transform="translate(0 -0.01)"/><path d="M123.09,299.69a8.73,8.73,0,0,0,1,4.68c.7,1.08,2,1.62,3.77,1.62a5.23,5.23,0,0,0,4.18-1.69,7.68,7.68,0,0,0,1.45-5.13v-15h-2.15v-.62h4.84v.62h-1.82v14.76c0,2.73-.61,4.78-1.83,6.13s-3.36,2-6.45,2-5.43-.64-7.06-1.92-2.43-3.49-2.43-6.6V284.18H114.8v-.62h10.44v.62h-2.15Z" transform="translate(0 -0.01)"/><path d="M195.53,294.76q0,6.83-3.85,9.51-3.54,2.49-9.74,2.49h-9.38v-.63h2.19V284.18h-2.19v-.62H182.8q6.36,0,9.55,2.6T195.53,294.76Zm-14.31,11.37h1.25a5.17,5.17,0,0,0,4.79-2.37q1.44-2.37,1.44-7.94V293.9q0-7.45-2.85-9a8.18,8.18,0,0,0-3.84-.74h-.79Z" transform="translate(0 -0.01)"/><path d="M237.53,283.56h10.11v.62h-1.83v21.95h1.83v.63H237.53v-.63h1.83V284.18h-1.83Z" transform="translate(0 -0.01)"/><path d="M305.34,296.51v-2.44q0-6.07-.6-7.66a3.34,3.34,0,0,0-1.89-2.25,4.64,4.64,0,0,0-1.69-.27,4.87,4.87,0,0,0-1.71.27,2.35,2.35,0,0,0-1.17.93,6.23,6.23,0,0,0-.75,1.39,9.61,9.61,0,0,0-.44,2c-.14,1.28-.2,3.17-.2,5.67v2.38a36.17,36.17,0,0,0,.31,5.75,7.3,7.3,0,0,0,.78,2.44,3.49,3.49,0,0,0,3.18,1.62,3.23,3.23,0,0,0,3.4-2.2A25.94,25.94,0,0,0,305.34,296.51Zm-4.25,10.58c-3.69,0-6.44-1-8.27-3s-2.73-4.9-2.73-8.68,1-6.77,2.93-9,4.72-3.26,8.3-3.26,6.29,1,8.11,3.1,2.73,5,2.73,8.79-.92,6.75-2.77,8.85S304.78,307.09,301.09,307.09Z" transform="translate(0 -0.01)"/><path d="M360.33,306.39a4.94,4.94,0,0,0,2.93-.9,3.06,3.06,0,0,0,1.28-2.69,3.16,3.16,0,0,0-1.38-2.77,12.94,12.94,0,0,0-3.91-1.67,28.59,28.59,0,0,1-3.68-1.24,9.72,9.72,0,0,1-2.16-1.4q-2.06-1.73-2.06-5.33a6.91,6.91,0,0,1,2.11-5.07,7.71,7.71,0,0,1,5.75-2.12,14.07,14.07,0,0,1,3.65.51,13.8,13.8,0,0,0,2.38.51c.3,0,.58-.22.83-.66h.36l.24,6.69h-.54a20.56,20.56,0,0,0-3.33-4.62,5.27,5.27,0,0,0-3.78-1.74,4.77,4.77,0,0,0-3.16.94,3.13,3.13,0,0,0-1.13,2.52,2.72,2.72,0,0,0,1.35,2.43,12.06,12.06,0,0,0,3.29,1.37c1.31.35,2.16.6,2.57.73s.92.31,1.52.54a8.08,8.08,0,0,1,1.5.73,11.44,11.44,0,0,1,1.22,1,4.46,4.46,0,0,1,1,1.27,7.55,7.55,0,0,1,.9,3.78,7.67,7.67,0,0,1-2.24,5.75,8.11,8.11,0,0,1-5.88,2.17,22.14,22.14,0,0,1-4.33-.5c-1.62-.33-2.52-.5-2.69-.5s-.62.33-.9,1h-.47l-.33-7.89h.56a18.55,18.55,0,0,0,3.73,5A6.94,6.94,0,0,0,360.33,306.39Z" transform="translate(0 -0.01)"/></g></g></svg>